<svg width="64" height="64" viewBox="0 0 64 64" fill="none" xmlns="http://www.w3.org/2000/svg">
<circle cx="32" cy="32" r="32" fill="#2A28B7" fill-opacity="0.1"/>
<circle cx="32" cy="32" r="31" stroke="#2A28B7" stroke-opacity="0.5" stroke-width="2"/>
<path d="M36.6823 35.3679C38.7798 31.2655 40.5204 27.188 40.5204 24.9527C40.5157 22.5767 39.5686 20.2996 37.8869 18.6211C36.2052 16.9427 33.9262 16 31.5502 16C29.1742 16 26.8953 16.9427 25.2135 18.6211C23.5318 20.2996 22.5847 22.5767 22.5801 24.9527C22.5801 27.1859 24.3174 31.2579 26.4122 35.3564C21.8787 36.3972 19 38.7162 19 41.398C19 45.1001 24.5005 48 31.5224 48C38.5444 48 44.0449 45.1001 44.0449 41.398C44.0449 38.7294 41.1856 36.4146 36.6823 35.3679ZM31.5502 17.345C33.5672 17.3473 35.5009 18.1495 36.9272 19.5757C38.3534 21.002 39.1556 22.9357 39.1579 24.9527C39.1579 27.234 36.7337 32.7923 32.507 40.2025C32.4107 40.3714 32.2715 40.5117 32.1035 40.6093C31.9354 40.707 31.7445 40.7584 31.5502 40.7584C31.3559 40.7584 31.165 40.707 30.9969 40.6093C30.8289 40.5117 30.6897 40.3714 30.5934 40.2025C26.3667 32.7923 23.9425 27.234 23.9425 24.9527C23.9448 22.9357 24.747 21.002 26.1732 19.5757C27.5995 18.1495 29.5332 17.3473 31.5502 17.345ZM31.5224 46.6376C25.4732 46.6376 20.3624 44.238 20.3624 41.398C20.3624 39.3821 23.0951 37.4517 27.0641 36.6117C27.8394 38.0825 28.6427 39.5327 29.4099 40.8778C29.6253 41.2553 29.9368 41.5692 30.3127 41.7875C30.6886 42.0058 31.1155 42.1208 31.5502 42.1208C31.9849 42.1208 32.4119 42.0058 32.7877 41.7875C33.1636 41.5692 33.4751 41.2553 33.6905 40.8778C34.4558 39.5359 35.2571 38.0893 36.0308 36.6222C39.9704 37.4674 42.6824 39.3934 42.6824 41.398C42.6824 44.238 37.5719 46.6376 31.5224 46.6376Z" fill="#2A28B7"/>
<path d="M35.5469 24.9524C35.5469 24.162 35.3125 23.3892 34.8733 22.732C34.4342 22.0747 33.81 21.5625 33.0797 21.26C32.3494 20.9575 31.5458 20.8783 30.7705 21.0325C29.9952 21.1867 29.283 21.5674 28.7241 22.1263C28.1652 22.6853 27.7845 23.3974 27.6303 24.1727C27.4761 24.948 27.5552 25.7516 27.8577 26.4819C28.1602 27.2122 28.6725 27.8364 29.3297 28.2756C29.987 28.7147 30.7597 28.9491 31.5502 28.9491C32.6098 28.9479 33.6257 28.5265 34.3749 27.7772C35.1242 27.0279 35.5457 26.012 35.5469 24.9524ZM28.916 24.9524C28.916 24.4314 29.0705 23.9221 29.3599 23.4889C29.6494 23.0557 30.0608 22.7181 30.5421 22.5187C31.0235 22.3193 31.5532 22.2671 32.0642 22.3688C32.5752 22.4704 33.0445 22.7213 33.4129 23.0897C33.7813 23.4582 34.0322 23.9275 34.1339 24.4385C34.2355 24.9495 34.1833 25.4792 33.9839 25.9605C33.7846 26.4419 33.4469 26.8533 33.0137 27.1427C32.5805 27.4322 32.0712 27.5867 31.5502 27.5867C30.8518 27.5859 30.1822 27.3081 29.6884 26.8142C29.1946 26.3204 28.9168 25.6508 28.916 24.9524Z" fill="#2A28B7"/>
</svg>
