<svg width="64" height="64" viewBox="0 0 64 64" fill="none" xmlns="http://www.w3.org/2000/svg">
<circle cx="32" cy="32" r="31" fill="#2A28B7" fill-opacity="0.1" stroke="#2A28B7" stroke-width="2"/>
<path d="M34.1297 18L31.8797 29.85L40.0297 29.9L28.9297 45.95L31.1797 32.9L23.0297 32.85L34.1297 18ZM34.1297 16C34.0797 16 34.0297 16 33.9797 16C33.6297 16.05 33.3797 16.15 33.1297 16.35C32.9797 16.45 32.8297 16.6 32.7297 16.7C32.6797 16.75 32.6797 16.8 32.6297 16.85L21.3797 31.7C20.9297 32.3 20.8797 33.1 21.2297 33.8C21.5797 34.45 22.2797 34.9 23.0297 34.9L28.7797 34.95L26.9797 45.65C26.8297 46.55 27.2797 47.5 28.1797 47.85C28.4297 47.95 28.7297 48 28.9797 48C29.6297 48 30.1297 47.7 30.5297 47.15L41.7297 31.1C42.1797 30.5 42.2297 29.7 41.8797 29C41.5297 28.35 40.8297 27.9 40.0797 27.9H34.3297L36.1297 18.5C36.1797 18.35 36.1797 18.2 36.1797 18.05C36.1797 16.95 35.3297 16.1 34.2297 16.05C34.1797 16 34.1297 16 34.1297 16Z" fill="#2A28B7"/>
</svg>
