<svg width="16" height="16" viewBox="0 0 16 16" fill="none" xmlns="http://www.w3.org/2000/svg">
<path fill-rule="evenodd" clip-rule="evenodd" d="M4 0C1.79086 0 0 1.79086 0 4V12C0 14.2091 1.79086 16 4 16H12C14.2091 16 16 14.2091 16 12V4C16 1.79086 14.2091 0 12 0H4ZM12.0287 4.29167C12.2004 4.11316 12.4349 4.00867 12.6825 4.00043C12.8743 3.99468 13.0634 4.0471 13.2249 4.15079C13.3863 4.25449 13.5127 4.40461 13.5873 4.58143C13.6618 4.75825 13.6812 4.95351 13.6428 5.14153C13.6043 5.32955 13.5099 5.50154 13.3719 5.63491C12.3723 6.63674 11.4148 7.64018 10.4528 8.64845C9.48128 9.66662 8.50509 10.6897 7.47594 11.7211C7.31063 11.8866 7.09012 11.9853 6.85658 11.9985C6.62303 12.0117 6.39283 11.9383 6.20997 11.7924L3.35708 9.51008C3.16004 9.35245 3.03368 9.123 3.00582 8.87221C2.99202 8.74803 3.00282 8.62235 3.03759 8.50234C3.07237 8.38233 3.13044 8.27035 3.20849 8.17279C3.28654 8.07522 3.38304 7.99399 3.49249 7.93372C3.60194 7.87345 3.72218 7.83534 3.84636 7.82154C3.97054 7.80774 4.09622 7.81854 4.21623 7.85331C4.33624 7.88808 4.44822 7.94615 4.54578 8.0242L6.72706 9.76565C7.50284 8.97561 8.25975 8.18487 9.01943 7.39124C10.0023 6.36448 10.9897 5.33287 12.0287 4.29167Z" fill="#2A28B7"/>
</svg>
