<svg width="20" height="20" viewBox="0 0 20 20" fill="none" xmlns="http://www.w3.org/2000/svg">
<path d="M14.9498 14.9498C14.5593 15.3403 13.9261 15.3403 13.5356 14.9498L5.05029 6.46447C4.65976 6.07395 4.65976 5.44078 5.05029 5.05026C5.44081 4.65973 6.07398 4.65973 6.4645 5.05026L14.9498 13.5355C15.3403 13.9261 15.3403 14.5592 14.9498 14.9498Z" fill="#2A28B7"/>
<path d="M5.05037 14.9498C4.65984 14.5593 4.65984 13.9261 5.05037 13.5356L13.5356 5.05029C13.9262 4.65976 14.5593 4.65976 14.9499 5.05029C15.3404 5.44081 15.3404 6.07398 14.9499 6.4645L6.46458 14.9498C6.07406 15.3403 5.44089 15.3403 5.05037 14.9498Z" fill="#2A28B7"/>
</svg>
