<svg width="64" height="64" viewBox="0 0 64 64" fill="none" xmlns="http://www.w3.org/2000/svg">
<circle cx="32" cy="32" r="32" fill="#2A28B7" fill-opacity="0.1"/>
<circle cx="32" cy="32" r="31" stroke="#2A28B7" stroke-opacity="0.5" stroke-width="2"/>
<path d="M34.7656 48C33.4122 48.005 32.075 47.7052 30.8533 47.1229C29.6316 46.5406 28.5566 45.6906 27.7082 44.6361L17.9733 32.4389C17.2336 31.5131 16.6836 30.4506 16.3546 29.3122C16.0256 28.1737 15.9242 26.9816 16.056 25.804C16.1878 24.6263 16.5504 23.4862 17.1229 22.4487C17.6954 21.4111 18.4668 20.4966 19.3928 19.7572C19.7756 19.446 20.217 19.2148 20.6908 19.0773C21.1646 18.9398 21.6612 18.8987 22.1512 18.9566C22.6414 19.0097 23.1162 19.1595 23.5481 19.3974C23.98 19.6353 24.3605 19.9566 24.6673 20.3425L24.7144 20.4031L27.4391 24.6684C27.7218 25.1108 27.8308 25.6422 27.7451 26.1602C27.6594 26.6781 27.385 27.1461 26.9749 27.4739L25.6294 28.5368C24.844 29.0809 24.2116 29.8176 23.7927 30.6762C23.6629 31.017 23.6325 31.3876 23.7051 31.7449C23.7778 32.1022 23.9505 32.4316 24.2031 32.6945L28.7981 38.44C29.5314 39.3549 30.628 40.021 33.1913 37.9758L34.5368 36.9128C34.9467 36.5838 35.4641 36.4188 35.9888 36.4499C36.5134 36.481 37.0078 36.7059 37.3759 37.081L40.9819 40.7274C41.2982 41.1142 41.5341 41.5602 41.6761 42.0393C41.818 42.5184 41.863 43.021 41.8085 43.5177C41.754 44.0144 41.6011 44.4952 41.3587 44.9322C41.1163 45.3691 40.7892 45.7533 40.3966 46.0624C38.7935 47.3279 36.8079 48.0112 34.7656 48ZM21.7341 20.2753C21.1881 20.2767 20.6589 20.4642 20.2338 20.8067C18.6506 22.0772 17.6351 23.923 17.4094 25.9403C17.1837 27.9576 17.7662 29.9821 19.0295 31.571L28.7577 43.775C30.0303 45.3551 31.8756 46.3683 33.8919 46.5939C35.9081 46.8195 37.9318 46.2391 39.522 44.9793C40.0162 44.5827 40.3347 44.0078 40.409 43.3786C40.4832 42.7493 40.3072 42.1161 39.9189 41.6154L36.3869 38.043C36.2507 37.9165 36.0744 37.8419 35.8887 37.832C35.7031 37.8222 35.5199 37.8778 35.371 37.9892L34.0255 39.0522C31.4017 41.1512 29.3161 41.2387 27.7486 39.3078L23.1872 33.5557C22.7809 33.1084 22.5076 32.5564 22.3982 31.962C22.2888 31.3676 22.3478 30.7545 22.5683 30.1918C23.0748 29.1154 23.8513 28.1884 24.8221 27.5008L26.1676 26.4445C26.3182 26.3228 26.4186 26.1498 26.4496 25.9586C26.4806 25.7675 26.4401 25.5716 26.3358 25.4085L23.6447 21.1768C23.2456 20.6931 22.6736 20.3842 22.0503 20.3156C21.9463 20.2929 21.8404 20.2794 21.7341 20.2753Z" fill="#2A28B7"/>
<path d="M46.2498 34.6253C46.1423 34.63 46.0353 34.6088 45.9377 34.5636C45.8401 34.5183 45.7548 34.4504 45.6889 34.3654C45.6231 34.2804 45.5785 34.1808 45.559 34.075C45.5395 33.9693 45.5457 33.8604 45.577 33.7575C46.1602 31.7852 46.2589 29.7013 45.8647 27.6827C45.4705 25.6641 44.5951 23.7704 43.3127 22.1625C42.0303 20.5545 40.3788 19.2797 38.4985 18.4464C36.6181 17.613 34.5645 17.2457 32.5119 17.3756C32.4235 17.3813 32.3349 17.3696 32.2511 17.3411C32.1673 17.3126 32.0899 17.2679 32.0233 17.2095C31.9568 17.151 31.9024 17.0801 31.8633 17.0007C31.8242 16.9213 31.8011 16.8349 31.7954 16.7466C31.7896 16.6582 31.8013 16.5696 31.8298 16.4858C31.8583 16.4019 31.9031 16.3246 31.9615 16.258C32.0199 16.1915 32.0908 16.1371 32.1703 16.098C32.2497 16.0589 32.3361 16.0358 32.4244 16.0301C34.6946 15.8817 36.967 16.2839 39.0485 17.2022C41.1299 18.1206 42.9588 19.528 44.3796 21.3049C45.8004 23.0817 46.7711 25.1753 47.2091 27.4078C47.6472 29.6403 47.5396 31.9455 46.8956 34.1275C46.8573 34.2697 46.7734 34.3955 46.6567 34.4854C46.54 34.5753 46.3971 34.6245 46.2498 34.6253Z" fill="#2A28B7"/>
<path d="M41.9509 34.1344C41.8863 34.1447 41.8205 34.1447 41.7558 34.1344C41.67 34.1084 41.5902 34.0654 41.5211 34.0081C41.4521 33.9508 41.3952 33.8803 41.3538 33.8007C41.3125 33.7211 41.2874 33.634 41.2802 33.5446C41.273 33.4551 41.2837 33.3652 41.3118 33.2799C41.7286 31.8852 41.7957 30.4094 41.5071 28.9826C41.2184 27.5559 40.583 26.2221 39.6568 25.0991C38.765 23.9507 37.6047 23.039 36.2779 22.4442C34.9511 21.8494 33.4985 21.5898 32.0478 21.6882C31.8694 21.7033 31.6922 21.647 31.5553 21.5316C31.4185 21.4161 31.333 21.251 31.3179 21.0726C31.3027 20.8942 31.359 20.717 31.4745 20.5801C31.5899 20.4432 31.755 20.3578 31.9334 20.3426C33.6004 20.2491 35.2656 20.5553 36.7902 21.2359C38.3148 21.9164 39.6546 22.9516 40.698 24.255C41.7414 25.5584 42.4581 27.0923 42.7884 28.7289C43.1187 30.3655 43.053 32.0574 42.5968 33.6634C42.5536 33.8007 42.4676 33.9204 42.3514 34.0052C42.2351 34.09 42.0948 34.1352 41.9509 34.1344Z" fill="#2A28B7"/>
<path d="M37.1069 33.5962C36.9697 33.5959 36.8359 33.5536 36.7234 33.4751C36.5773 33.3733 36.4776 33.2176 36.446 33.0423C36.4145 32.867 36.4538 32.6864 36.5552 32.54C36.9867 31.8145 37.1863 30.9747 37.1275 30.1327C37.0686 29.2907 36.7541 28.4868 36.2259 27.8284C35.6977 27.17 34.9812 26.6886 34.172 26.4486C33.3628 26.2085 32.4996 26.2212 31.6979 26.4851C31.6157 26.5178 31.5279 26.5341 31.4395 26.5329C31.351 26.5317 31.2637 26.5131 31.1824 26.4781C31.1012 26.4431 31.0277 26.3924 30.966 26.329C30.9044 26.2655 30.8559 26.1905 30.8233 26.1083C30.7905 26.0262 30.7743 25.9384 30.7755 25.8499C30.7767 25.7615 30.7953 25.6741 30.8303 25.5929C30.8653 25.5117 30.9159 25.4381 30.9794 25.3765C31.0428 25.3149 31.1178 25.2664 31.2 25.2337C32.2709 24.8611 33.4309 24.8297 34.5204 25.1436C35.6098 25.4576 36.5752 26.1017 37.2834 26.987C37.9917 27.8724 38.4081 28.9555 38.4753 30.0874C38.5425 31.2192 38.2572 32.344 37.6586 33.3069C37.5968 33.3961 37.5143 33.4689 37.4182 33.5193C37.3222 33.5696 37.2154 33.596 37.1069 33.5962Z" fill="#2A28B7"/>
</svg>
