<svg width="16" height="11" viewBox="0 0 16 11" fill="none" xmlns="http://www.w3.org/2000/svg">
<path d="M14.817 0.5C15.4703 0.5 16 0.988749 16 1.59576V9.82738C16 10.4325 15.4677 10.9231 14.817 10.9231H1.18302C0.529654 10.9231 0 10.4344 0 9.82738V1.59576C0 0.990587 0.532348 0.5 1.18302 0.5H14.817ZM1.18519 2.78997V8.62803C1.18519 8.93134 1.39311 9.0243 1.64959 8.83435L5.66068 5.86378C5.79146 5.76692 5.78964 5.61421 5.66068 5.5197L1.64959 2.58007C1.3936 2.39246 1.18519 2.48607 1.18519 2.78997ZM14.8148 8.62803V2.78997C14.8148 2.48666 14.6069 2.39209 14.3504 2.58007L10.3393 5.5197C10.2085 5.61555 10.2104 5.76827 10.3393 5.86378L14.3504 8.83435C14.6064 9.02394 14.8148 8.93193 14.8148 8.62803ZM2.79826 9.82596H13.2017C13.5284 9.82596 13.5854 9.67282 13.3303 9.48392L9.38232 6.5601C9.25786 6.46792 9.04783 6.4662 8.91906 6.56058L8.93007 6.55251C8.41598 6.92927 7.5836 6.92896 7.06993 6.55251L7.08094 6.56058C6.95003 6.46463 6.74476 6.46599 6.61768 6.5601L2.66973 9.48392C2.41323 9.67388 2.4722 9.82596 2.79826 9.82596ZM8.69746 5.32361L13.3187 1.93679C13.5763 1.74799 13.5165 1.59717 13.1888 1.59717H2.81125C2.48113 1.59717 2.42534 1.74922 2.68127 1.93679L7.30254 5.32361C7.68913 5.60693 8.31226 5.60591 8.69746 5.32361Z" fill="white"/>
</svg>
