<svg width="114" height="24" viewBox="0 0 114 24" fill="none" xmlns="http://www.w3.org/2000/svg">
<path d="M16.3762 24C16.3499 22.8574 15.8775 21.7705 15.0601 20.9718C14.2427 20.173 13.1452 19.7258 12.0023 19.7258C10.8594 19.7258 9.76193 20.173 8.94454 20.9718C8.12715 21.7705 7.65477 22.8574 7.62844 24H4.37735C4.37735 21.9774 5.18082 20.0377 6.61099 18.6075C8.04117 17.1774 9.9809 16.3739 12.0035 16.3739C14.0261 16.3739 15.9658 17.1774 17.396 18.6075C18.8261 20.0377 19.6296 21.9774 19.6296 24H16.3762Z" fill="white"/>
<path d="M19.6273 0H16.3762C16.375 1.15995 15.9136 2.27205 15.0934 3.09226C14.2732 3.91247 13.1611 4.37381 12.0012 4.37504C10.8412 4.37381 9.72911 3.91247 8.9089 3.09226C8.08869 2.27205 7.62735 1.15995 7.62612 0H4.37503C4.37688 2.02201 5.18094 3.96067 6.61071 5.39045C8.04049 6.82022 9.97915 7.62428 12.0012 7.62613C14.023 7.62367 15.9613 6.81941 17.3909 5.38977C18.8206 3.96013 19.6248 2.02182 19.6273 0Z" fill="white"/>
<path d="M0 4.37503V7.62612C1.15995 7.62735 2.27205 8.08869 3.09226 8.9089C3.91247 9.72911 4.37381 10.8412 4.37504 12.0012C4.37319 13.1607 3.91159 14.2722 3.09144 15.0919C2.2713 15.9116 1.15955 16.3726 0 16.3739V19.625C2.02161 19.6231 3.95992 18.8194 5.38963 17.3901C6.81934 15.9608 7.62367 14.0228 7.62613 12.0012C7.62428 9.97915 6.82022 8.04049 5.39045 6.61071C3.96067 5.18094 2.02201 4.37688 0 4.37503Z" fill="white"/>
<path d="M24 7.62613C22.8574 7.65245 21.7705 8.12483 20.9717 8.94223C20.173 9.75962 19.7258 10.8571 19.7258 12C19.7258 13.1429 20.173 14.2404 20.9717 15.0578C21.7705 15.8752 22.8574 16.3475 24 16.3739V19.625C21.9774 19.625 20.0377 18.8215 18.6075 17.3913C17.1773 15.9611 16.3739 14.0214 16.3739 11.9988C16.3739 9.97626 17.1773 8.03653 18.6075 6.60636C20.0377 5.17618 21.9774 4.37271 24 4.37271V7.62613Z" fill="white"/>
<path d="M12.0012 14.6462C13.4619 14.6462 14.6461 13.462 14.6461 12.0012C14.6461 10.5404 13.4619 9.35619 12.0012 9.35619C10.5404 9.35619 9.35616 10.5404 9.35616 12.0012C9.35616 13.462 10.5404 14.6462 12.0012 14.6462Z" fill="white"/>
<path d="M31.3498 14.7019H35.6226V16.3599H29.3527V7.61684H35.4926V9.27489H31.3498V11.1327H35.0073V12.6049H31.3498V14.7019Z" fill="white"/>
<path d="M38.8273 10.0737L40.079 12.6142L41.3353 10.0737H43.5228L41.7417 13.0926L43.6319 16.3599H41.3817L40.079 13.6221L38.7808 16.3599H36.5446L38.4232 13.0926L36.6444 10.0737H38.8273Z" fill="white"/>
<path d="M48.6734 16.6038C48.2732 16.6104 47.877 16.5228 47.5167 16.3482C47.1565 16.1735 46.8424 15.9166 46.5997 15.5983V19.1838H44.7582V10.0737H46.5742V10.8331C46.8228 10.5172 47.1404 10.2624 47.5026 10.0881C47.8649 9.91383 48.2622 9.82472 48.6642 9.82759C50.4081 9.82759 51.6482 11.2209 51.6482 13.2157C51.6482 15.2105 50.429 16.6038 48.6734 16.6038ZM49.816 13.2157C49.816 12.2102 49.1193 11.4856 48.1719 11.4856C47.2244 11.4856 46.5254 12.2218 46.5254 13.2157C46.5254 14.2096 47.2221 14.9481 48.1719 14.9481C49.1216 14.9481 49.816 14.2096 49.816 13.2157Z" fill="white"/>
<path d="M59.8479 13.3504H61.7707C61.4758 15.2778 59.6598 16.6665 57.4235 16.6665C54.7228 16.6665 52.7582 14.7019 52.7582 11.9872C52.7582 9.27258 54.7228 7.31031 57.4235 7.31031C59.6343 7.31031 61.4525 8.73383 61.7707 10.7123H59.8316C59.5855 9.6302 58.6032 9.0868 57.4746 9.0868C55.9141 9.0868 54.8203 10.292 54.8203 11.9965C54.8203 13.701 55.9257 14.9086 57.4746 14.9086C58.5823 14.8993 59.5785 14.3977 59.8479 13.3504Z" fill="white"/>
<path d="M69.8543 13.2157C69.8543 15.2174 68.4308 16.6038 66.3547 16.6038C64.2787 16.6038 62.8714 15.2104 62.8714 13.2157C62.8714 11.2209 64.2949 9.82755 66.3547 9.82755C68.4145 9.82755 69.8543 11.2023 69.8543 13.2157ZM67.9965 13.2157C67.9965 12.1846 67.3207 11.4485 66.3501 11.4485C65.3794 11.4485 64.7245 12.1846 64.7245 13.2157C64.7245 14.2467 65.4003 14.9852 66.3501 14.9852C67.2999 14.9852 68.0012 14.2467 68.0012 13.2157H67.9965Z" fill="white"/>
<path d="M71.157 16.3599V10.0737H72.9173V10.8215C73.1134 10.5082 73.3881 10.2517 73.714 10.0774C74.0398 9.90306 74.4056 9.81693 74.775 9.82755C75.1831 9.80874 75.5884 9.90311 75.9462 10.1002C76.3039 10.2974 76.6002 10.5896 76.8023 10.9445C77.03 10.594 77.3434 10.3075 77.7128 10.112C78.0822 9.91654 78.4954 9.81863 78.9132 9.82755C80.3367 9.82755 81.3329 10.8958 81.3329 12.4052V16.353H79.4914V12.7721C79.4914 12.022 79.027 11.4694 78.3303 11.4461C77.6337 11.4229 77.1414 11.9988 77.1414 12.7721V16.3599H75.2975V12.7721C75.2975 11.9733 74.8563 11.4461 74.1689 11.4461C73.4816 11.4461 73.0078 11.9733 73.0078 12.7721V16.3599H71.157Z" fill="white"/>
<path d="M86.7135 16.6038C86.3132 16.6104 85.917 16.5228 85.5568 16.3482C85.1966 16.1735 84.8825 15.9166 84.6398 15.5983V19.1838H82.7983V10.0737H84.6142V10.8331C84.8628 10.5172 85.1804 10.2624 85.5427 10.0881C85.9049 9.91383 86.3022 9.82472 86.7042 9.82759C88.4482 9.82759 89.6883 11.2209 89.6883 13.2157C89.6883 15.2105 88.4761 16.6038 86.7135 16.6038ZM87.856 13.2157C87.856 12.2102 87.1594 11.4856 86.2096 11.4856C85.2598 11.4856 84.5655 12.2218 84.5655 13.2157C84.5655 14.2096 85.2621 14.9481 86.2096 14.9481C87.1571 14.9481 87.856 14.2096 87.856 13.2157Z" fill="white"/>
<path d="M95.8746 10.0737H97.7161V16.3599H95.8746V15.4868C95.638 15.8345 95.3191 16.1183 94.9464 16.3132C94.5738 16.508 94.1587 16.6078 93.7382 16.6038C91.9687 16.6038 90.7193 15.2104 90.7193 13.2157C90.7193 11.2209 91.9594 9.82757 93.7382 9.82757C94.1587 9.8235 94.5738 9.92332 94.9464 10.1182C95.3191 10.313 95.638 10.5969 95.8746 10.9446V10.0737ZM95.8607 13.2157C95.8607 12.1962 95.164 11.4485 94.2165 11.4485C93.2691 11.4485 92.5701 12.1962 92.5701 13.2157C92.5701 14.2351 93.2668 14.9852 94.2165 14.9852C95.1663 14.9852 95.8607 14.2351 95.8607 13.2157Z" fill="white"/>
<path d="M101.104 10.0737V10.9144C101.32 10.5799 101.617 10.3049 101.966 10.1142C102.316 9.92359 102.708 9.82345 103.106 9.82292C104.518 9.82292 105.477 10.9144 105.477 12.4261V16.3599H103.633V12.7489C103.633 11.9872 103.192 11.4485 102.472 11.4485C102.294 11.4493 102.119 11.4858 101.956 11.5559C101.793 11.6261 101.645 11.7284 101.523 11.8567C101.4 11.985 101.305 12.1367 101.242 12.3028C101.179 12.4688 101.15 12.6458 101.158 12.8232V16.3599H99.3161V10.0737H101.104Z" fill="white"/>
<path d="M107.221 17.6116C107.463 17.6886 107.715 17.7301 107.969 17.7347C108.754 17.7347 109.062 17.182 109.343 16.4203L106.373 10.0737H108.387L110.093 14.1237L111.487 10.0737H113.4L110.969 16.5759C110.381 18.2015 109.706 19.1907 108.428 19.1907C108.013 19.1835 107.602 19.1049 107.214 18.9585L107.221 17.6116Z" fill="white"/>
</svg>
