<svg width="12" height="17" viewBox="0 0 12 17" fill="none" xmlns="http://www.w3.org/2000/svg">
<path d="M7.19034 1.5L6.03948 7.425L10.2081 7.45L4.53058 15.475L5.68144 8.95L1.51278 8.925L7.19034 1.5ZM7.19034 0.5C7.16477 0.5 7.13919 0.5 7.11362 0.5C6.9346 0.525 6.80672 0.575 6.67885 0.675C6.60213 0.725 6.5254 0.8 6.47425 0.85C6.44868 0.875 6.44868 0.9 6.4231 0.925L0.668817 8.35C0.438645 8.65 0.41307 9.05 0.592093 9.4C0.771115 9.725 1.12916 9.95 1.51278 9.95L4.45386 9.975L3.53317 15.325C3.45645 15.775 3.68662 16.25 4.14696 16.425C4.27484 16.475 4.42828 16.5 4.55616 16.5C4.88863 16.5 5.14437 16.35 5.34897 16.075L11.0777 8.05C11.3079 7.75 11.3334 7.35 11.1544 7C10.9754 6.675 10.6173 6.45 10.2337 6.45H7.29264L8.21333 1.75C8.2389 1.675 8.2389 1.6 8.2389 1.525C8.2389 0.975 7.80413 0.55 7.24149 0.525C7.21592 0.5 7.19034 0.5 7.19034 0.5Z" fill="white"/>
</svg>
