<svg width="64" height="64" viewBox="0 0 64 64" fill="none" xmlns="http://www.w3.org/2000/svg">
<circle cx="32" cy="32" r="32" fill="white" fill-opacity="0.1"/>
<circle cx="32" cy="32" r="31" stroke="white" stroke-opacity="0.5" stroke-width="2"/>
<path d="M22.0797 45.8817C25.5777 44.6937 25.8417 44.6277 25.9077 44.5617C26.1717 44.4297 25.0497 45.4857 45.2458 25.2896C46.2359 24.1676 47.5559 23.5076 47.5559 21.7915C47.5559 19.9435 46.1039 19.4155 43.7278 16.8415C42.6058 15.7195 40.8898 15.7195 39.7678 16.8415C22.1457 34.4636 19.7037 36.9057 19.4396 37.1697C19.3736 37.2357 19.3076 37.3017 19.1096 37.4997C19.0436 37.5657 19.0436 37.6317 18.9776 37.6977C18.9776 37.6977 18.9776 37.6977 18.9776 37.7637C14.6216 50.7658 14.5556 47.9277 22.0797 45.8817ZM43.8598 24.8276L25.6437 43.0437L23.5317 40.9317L41.7478 22.7816L43.8598 24.8276ZM39.6358 18.8215L40.6918 17.7655C41.2858 17.1715 42.2098 17.1715 42.8038 17.7655C45.5098 20.6695 46.2359 20.8015 46.2359 21.8575C46.2359 22.7816 45.5099 23.1116 44.7838 23.9696L39.6358 18.8215ZM38.7118 19.7455L40.8238 21.8575L22.6077 40.0737L20.4957 37.9617L38.7118 19.7455ZM19.8357 39.1497L24.3897 43.7037L22.0137 44.4957L19.0436 41.5257L19.8357 39.1497ZM18.5816 42.9777L20.6277 45.0237L17.5916 46.0137L18.5816 42.9777Z" fill="white"/>
<path d="M46.229 41.5022C45.041 38.0042 44.975 37.7402 44.909 37.6742C44.777 37.4102 45.833 38.5322 25.6369 18.336C24.5149 17.346 23.8549 16.026 22.1388 16.026C20.2908 16.026 19.7628 17.478 17.1888 19.854C16.0668 20.976 16.0668 22.692 17.1888 23.8141C34.8109 41.4362 37.253 43.8782 37.517 44.1422C37.583 44.2082 37.649 44.2742 37.847 44.4722C37.913 44.5382 37.979 44.5382 38.045 44.6042C38.045 44.6042 38.045 44.6042 38.111 44.6042C51.1131 48.9603 48.275 49.0262 46.229 41.5022ZM25.1749 19.722L43.391 37.9382L41.279 40.0502L23.1289 21.834L25.1749 19.722ZM19.1688 23.9461L18.1128 22.89C17.5188 22.296 17.5188 21.372 18.1128 20.778C21.0168 18.072 21.1488 17.346 22.2048 17.346C23.1289 17.346 23.4589 18.072 24.3169 18.798L19.1688 23.9461ZM20.0928 24.8701L22.2048 22.758L40.421 40.9742L38.309 43.0862L20.0928 24.8701ZM39.497 43.7462L44.051 39.1922L44.843 41.5682L41.873 44.5382L39.497 43.7462ZM43.325 45.0002L45.371 42.9542L46.361 45.9902L43.325 45.0002Z" fill="white"/>
</svg>
