<svg width="16" height="15" viewBox="0 0 16 15" fill="none" xmlns="http://www.w3.org/2000/svg">
<path d="M11.9243 14.5813H11.9083C10.8182 14.5682 9.74709 14.2937 8.78504 13.7808C7.71534 13.2279 6.71208 12.5549 5.79464 11.775L5.42645 11.4724C4.42495 10.6839 3.46928 9.8389 2.56412 8.94146C1.88376 8.23869 1.03371 7.27818 0.483013 6.06793C0.140842 5.33763 -0.0237236 4.53674 0.00275738 3.73069C0.0583398 2.77535 0.429386 1.86547 1.05772 1.14371C1.3045 0.854904 1.57962 0.59158 1.87896 0.357688C2.10711 0.167705 2.38518 0.047492 2.67987 0.0114355C2.97457 -0.024621 3.27342 0.0250069 3.54064 0.154379C4.53228 0.582056 5.3487 1.33468 5.85548 2.28832C5.96776 2.47781 6.02834 2.69346 6.03115 2.91371C6.03396 3.13396 5.9789 3.35109 5.87149 3.54339C5.78184 3.70347 5.69059 3.86356 5.59774 4.02364C5.50489 4.18373 5.42645 4.3198 5.3432 4.46868L5.25516 4.62876C5.12549 4.84328 5.01343 5.05139 4.91578 5.2643C4.88513 5.311 4.87172 5.36692 4.87786 5.42243C4.88399 5.47795 4.90929 5.52959 4.94939 5.56846L5.25676 5.90304C5.63456 6.31446 6.02357 6.74029 6.43018 7.12289C7.36355 8.0133 8.37329 8.82002 9.44779 9.53378C9.64149 9.66025 9.848 9.7723 10.0657 9.89237L10.1746 9.9516C10.2104 9.9736 10.2521 9.98388 10.294 9.98101C10.3359 9.97814 10.3759 9.96226 10.4083 9.93559C10.6267 9.78653 10.8373 9.62623 11.039 9.45534C11.1991 9.32567 11.3592 9.1912 11.5097 9.05672C11.6602 8.92225 11.785 8.8182 11.9259 8.70133C12.1092 8.54713 12.3307 8.44522 12.5671 8.40634C12.8035 8.36747 13.046 8.39305 13.269 8.48042C14.243 8.81821 15.0841 9.45743 15.6703 10.3054C15.8676 10.5678 15.9817 10.8832 15.998 11.2111C16.0142 11.5389 15.9319 11.8642 15.7616 12.1448C14.9739 13.5183 13.8581 14.3251 12.4446 14.5461C12.3019 14.5659 12.158 14.5771 12.014 14.5797H11.9307H11.9147L11.9243 14.5813ZM2.84747 0.937197C2.70833 0.938306 2.57422 0.989447 2.46967 1.08127C2.21951 1.27607 1.98896 1.49482 1.78131 1.73442C1.24342 2.39237 0.963269 3.05673 0.939256 3.77071C0.922368 4.43441 1.0628 5.0927 1.34907 5.69173C1.82933 6.7691 2.61375 7.64957 3.24128 8.29792C4.12008 9.16769 5.04739 9.98704 6.01876 10.752L6.38856 11.0562C7.25256 11.7906 8.19726 12.4243 9.20446 12.9452C10.165 13.4255 10.9958 13.6448 11.8971 13.6496H11.9931C12.1002 13.6477 12.2071 13.6396 12.3133 13.6256C13.4467 13.4527 14.3128 12.8251 14.9611 11.6885C15.0442 11.5618 15.0844 11.4119 15.0761 11.2607C15.0677 11.1094 15.0112 10.9648 14.9147 10.8481C14.4405 10.1593 13.7592 9.63951 12.9697 9.36409C12.8996 9.33013 12.821 9.31764 12.7438 9.32817C12.6666 9.33871 12.5943 9.37181 12.5358 9.42332C12.3998 9.53538 12.2669 9.65064 12.134 9.7659C11.9739 9.90518 11.8139 10.0445 11.6442 10.1805C11.4171 10.3703 11.1804 10.5483 10.935 10.7136C10.7597 10.8332 10.5544 10.9011 10.3424 10.9096C10.1303 10.9181 9.92021 10.8668 9.73594 10.7616L9.62869 10.704C9.40297 10.5823 9.17084 10.4543 8.94512 10.307C7.82148 9.56596 6.76512 8.72762 5.78824 7.80165C5.35761 7.39504 4.9558 6.9564 4.56679 6.53218L4.26263 6.2024C4.09788 6.02728 3.99082 5.80583 3.95589 5.56794C3.92097 5.33006 3.95986 5.08718 4.06732 4.87209C4.18098 4.62396 4.31386 4.39184 4.44192 4.16292L4.52837 4.00283C4.61321 3.84275 4.70126 3.69867 4.78931 3.54659C4.87736 3.39451 4.9686 3.23762 5.05505 3.08234C5.08691 3.02836 5.10223 2.96621 5.0991 2.9036C5.09597 2.841 5.07453 2.78069 5.03744 2.73015C4.62725 1.9625 3.96856 1.35687 3.16925 1.01244C3.06839 0.965249 2.9588 0.939623 2.84747 0.937197Z" fill="#828282"/>
</svg>
