<svg width="160" height="69" viewBox="0 0 160 69" fill="none" xmlns="http://www.w3.org/2000/svg">
<g clip-path="url(#clip0)">
<path d="M91.351 35.8393H86.5194C86.4803 34.1331 85.7783 32.51 84.5635 31.3172C83.3488 30.1244 81.7178 29.4565 80.0193 29.4565C78.3208 29.4565 76.6898 30.1244 75.475 31.3172C74.2603 32.51 73.5583 34.1331 73.5191 35.8393H68.6772C68.6772 32.819 69.8713 29.9224 71.9967 27.7867C74.1222 25.651 77.0049 24.4512 80.0107 24.4512C83.0165 24.4512 85.8992 25.651 88.0246 27.7867C90.15 29.9224 91.3441 32.819 91.3441 35.8393H91.351Z" fill="#1A0D50"/>
<path d="M91.351 0H86.5194C86.5176 1.73216 85.832 3.39286 84.6131 4.61768C83.3941 5.84251 81.7414 6.53142 80.0176 6.53325C78.2925 6.53325 76.638 5.84515 75.4176 4.62013C74.1972 3.39511 73.5106 1.73336 73.5088 0L68.6772 0C68.68 3.01947 69.8749 5.91448 71.9998 8.04957C74.1246 10.1847 77.0057 11.3854 80.0107 11.3881C83.0168 11.3872 85.8997 10.1873 88.026 8.05202C90.1524 5.91673 91.3482 3.02067 91.351 0V0Z" fill="#77ABAD"/>
<path d="M62.1855 6.53325V11.3881C63.8836 11.4274 65.4989 12.1328 66.6859 13.3534C67.873 14.5741 68.5376 16.213 68.5376 17.9196C68.5376 19.6263 67.873 21.2652 66.6859 22.4858C65.4989 23.7064 63.8836 24.4118 62.1855 24.4512V29.306C65.1914 29.306 68.0741 28.1062 70.1995 25.9705C72.3249 23.8348 73.519 20.9382 73.519 17.9179C73.519 14.8976 72.3249 12.001 70.1995 9.86529C68.0741 7.7296 65.1914 6.52979 62.1855 6.52979V6.53325Z" fill="#435AC4"/>
<path d="M97.8525 6.53325V11.3881C96.9863 11.3681 96.1248 11.5222 95.3187 11.8414C94.5126 12.1606 93.7781 12.6385 93.1584 13.247C92.5387 13.8555 92.0463 14.5823 91.7102 15.3847C91.374 16.1872 91.2008 17.049 91.2008 17.9196C91.2008 18.7903 91.374 19.6521 91.7102 20.4545C92.0463 21.2569 92.5387 21.9838 93.1584 22.5923C93.7781 23.2007 94.5126 23.6786 95.3187 23.9979C96.1248 24.3171 96.9863 24.4712 97.8525 24.4512V29.306C94.8467 29.306 91.964 28.1062 89.8385 25.9705C87.7131 23.8348 86.519 20.9382 86.519 17.9179C86.519 14.8976 87.7131 12.001 89.8385 9.86529C91.964 7.7296 94.8467 6.52979 97.8525 6.52979V6.53325Z" fill="#A6A6A6"/>
<path d="M80.0172 21.8712C82.1882 21.8712 83.948 20.1029 83.948 17.9215C83.948 15.7401 82.1882 13.9717 80.0172 13.9717C77.8463 13.9717 76.0864 15.7401 76.0864 17.9215C76.0864 20.1029 77.8463 21.8712 80.0172 21.8712Z" fill="#DD9517"/>
<path d="M20.5202 48.7808H26.8702V51.2568H17.5522V38.2007H26.6873V40.6767H20.5202V43.4509H25.9591V45.6494H20.5202V48.7808Z" fill="#1A0D50"/>
<path d="M31.6327 41.8697L33.4963 45.6634L35.3564 41.8697H38.6039L35.9569 46.3778L38.7695 51.2534H35.4289L33.4963 47.1615L31.5602 51.25H28.2402L31.0322 46.3743L28.3852 41.8662L31.6327 41.8697Z" fill="#1A0D50"/>
<path d="M46.2688 51.6245C45.6733 51.6329 45.0842 51.5012 44.5484 51.2398C44.0127 50.9785 43.5453 50.5948 43.1835 50.1195V55.4841H40.4468V41.8697H43.1386V43.0002C43.5074 42.5275 43.9792 42.146 44.5176 41.8851C45.0561 41.6242 45.6469 41.4908 46.2446 41.4952C48.8364 41.4952 50.6793 43.5759 50.6793 46.5547C50.6793 49.5335 48.8778 51.6245 46.2688 51.6245ZM47.9667 46.5616C47.9667 45.0601 46.9314 43.9781 45.5199 43.9781C44.1084 43.9781 43.0765 45.0774 43.0765 46.5616C43.0765 48.0458 44.1118 49.1486 45.5199 49.1486C46.9279 49.1486 47.9702 48.0493 47.9702 46.5616H47.9667Z" fill="#1A0D50"/>
<path d="M62.8755 46.7663H65.7399C65.3016 49.6445 62.5994 51.7148 59.2795 51.7148C55.2658 51.7148 52.3462 48.781 52.3462 44.7307C52.3462 40.6804 55.2658 37.7432 59.2795 37.7432C62.5649 37.7432 65.2637 39.8724 65.7399 42.8234H62.8548C62.5097 41.2109 61.0326 40.396 59.3519 40.396C57.0362 40.396 55.4108 42.1923 55.4108 44.7411C55.4108 47.2899 57.0535 49.0862 59.3519 49.0862C60.9947 49.0758 62.4648 48.3233 62.8755 46.7663Z" fill="#1A0D50"/>
<path d="M77.7466 46.5614C77.7466 49.5506 75.6311 51.6243 72.5458 51.6243C69.4605 51.6243 67.3691 49.5437 67.3691 46.5614C67.3691 43.5791 69.4881 41.502 72.5458 41.502C75.6035 41.502 77.7466 43.5549 77.7466 46.5614ZM74.9857 46.5614C74.9857 45.0217 73.9814 43.9224 72.5389 43.9224C71.0963 43.9224 70.1231 45.0217 70.1231 46.5614C70.1231 48.1011 71.1274 49.2038 72.5389 49.2038C73.9504 49.2038 74.9926 48.1046 74.9926 46.5614H74.9857Z" fill="#1A0D50"/>
<path d="M79.6792 51.2567V41.8695H82.3089V43C82.598 42.5352 83.0021 42.1538 83.4818 41.893C83.9615 41.6323 84.5004 41.5011 85.0457 41.5123C85.6516 41.4841 86.2535 41.625 86.7847 41.9194C87.3159 42.2138 87.7556 42.6502 88.055 43.1803C88.3941 42.6569 88.8605 42.229 89.41 41.9371C89.9596 41.6453 90.5741 41.4991 91.1955 41.5123C93.3111 41.5123 94.7881 43.1075 94.7881 45.365V51.2602H92.0514V45.9025C92.0514 44.7859 91.3612 43.9606 90.3259 43.9224C89.2905 43.8843 88.5554 44.7478 88.5554 45.9025V51.2567H85.8187V45.9025C85.8187 44.7096 85.163 43.9224 84.1415 43.9224C83.1199 43.9224 82.4159 44.7096 82.4159 45.9025V51.2567H79.6792Z" fill="#1A0D50"/>
<path d="M102.802 51.6246C102.206 51.6329 101.617 51.5012 101.081 51.2399C100.545 50.9785 100.078 50.5949 99.7162 50.1196V55.4842H96.9761V41.8698H99.6783V43.0003C100.047 42.5269 100.518 42.145 101.057 41.8841C101.595 41.6231 102.186 41.4901 102.784 41.4953C105.376 41.4953 107.219 43.5759 107.219 46.5547C107.219 49.5335 105.411 51.6246 102.802 51.6246ZM104.499 46.5617C104.499 45.0601 103.464 43.9782 102.053 43.9782C100.641 43.9782 99.6093 45.0775 99.6093 46.5617C99.6093 48.0458 100.645 49.1486 102.053 49.1486C103.461 49.1486 104.499 48.0493 104.499 46.5617Z" fill="#1A0D50"/>
<path d="M116.413 41.8697H119.149V51.2569H116.413V49.9565C116.061 50.4757 115.587 50.8996 115.033 51.1906C114.48 51.4815 113.863 51.6306 113.238 51.6245C110.611 51.6245 108.769 49.5439 108.769 46.5616C108.769 43.5793 110.611 41.5021 113.238 41.5021C113.863 41.496 114.48 41.6451 115.033 41.9361C115.587 42.2271 116.061 42.651 116.413 43.1701V41.8697ZM116.395 46.5616C116.395 45.0427 115.36 43.9226 113.952 43.9226C112.544 43.9226 111.505 45.0427 111.505 46.5616C111.505 48.0805 112.541 49.204 113.952 49.204C115.364 49.204 116.395 48.0839 116.395 46.5616Z" fill="#1A0D50"/>
<path d="M124.188 41.8695V43.1353C124.508 42.6343 124.948 42.2222 125.468 41.9368C125.988 41.6514 126.571 41.5019 127.163 41.502C129.261 41.502 130.683 43.1353 130.683 45.3893V51.2568H127.946V45.8679C127.946 44.7304 127.291 43.9224 126.221 43.9224C125.957 43.9241 125.696 43.979 125.454 44.0839C125.212 44.1888 124.994 44.3416 124.811 44.5331C124.629 44.7246 124.487 44.9509 124.394 45.1987C124.3 45.4465 124.257 45.7106 124.267 45.9754V51.2568H121.531V41.8695H124.188Z" fill="#1A0D50"/>
<path d="M133.275 53.126C133.636 53.2412 134.011 53.3031 134.39 53.3098C135.556 53.3098 136.012 52.4844 136.433 51.347L132.015 41.8696H135.007L137.544 47.9209L139.614 41.8696H142.462L138.848 51.5793C137.972 54.0068 136.967 55.484 135.073 55.484C134.455 55.4736 133.843 55.3563 133.264 55.1373L133.275 53.126Z" fill="#1A0D50"/>
<path d="M0.966309 68.2769H0V60.0132H1.40115L4.3967 66.9487L7.41987 60.0132H8.81757V68.2769H7.85126V61.2581L4.79358 68.2769H4.01363L0.966309 61.2685V68.2769Z" fill="#1A0D50"/>
<path d="M11.3024 68.2769H10.2671L13.3351 60.0132H14.7156L17.7836 68.2769H16.7483L16.1409 66.5811H11.9305L11.3024 68.2769ZM12.1652 65.8286H15.9096L14.0426 60.8836L12.1652 65.8286Z" fill="#1A0D50"/>
<path d="M20.2129 68.2769H19.2432V60.0132H22.8703C24.5958 60.0132 25.8451 61.0917 25.8451 62.6175C25.8319 63.1915 25.6228 63.7436 25.2527 64.1811C24.8826 64.6186 24.3741 64.915 23.8124 65.0206L25.9107 68.2769H24.7822L22.8358 65.1559H20.2129V68.2769ZM20.2129 60.8836V64.2924H22.8012C24.0126 64.2924 24.8719 63.5988 24.8719 62.6175C24.8719 61.539 24.0091 60.8836 22.8012 60.8836H20.2129Z" fill="#1A0D50"/>
<path d="M27.7573 60.0132H28.7271V63.5434L32.2127 60.0132H33.4758L29.5899 63.9179L33.6 68.2769H32.33L28.7271 64.282V68.2769H27.7573V60.0132Z" fill="#1A0D50"/>
<path d="M35.9085 67.4099H40.6917V68.2769H34.9629V60.0132H40.5744V60.8836H35.9085V63.5884H40.1085V64.4103H35.9085V67.4099Z" fill="#1A0D50"/>
<path d="M44.3776 60.8836H41.6167V60.0132H48.091V60.8836H45.3301V68.2769H44.3638L44.3776 60.8836Z" fill="#1A0D50"/>
<path d="M50.417 60.0132V68.2769H49.4507V60.0132H50.417Z" fill="#1A0D50"/>
<path d="M58.1615 67.0805V60.0132H59.1416V68.2769H57.8716L53.6026 61.2096V68.2769H52.6328V60.0132H53.9063L58.1615 67.0805Z" fill="#1A0D50"/>
<path d="M68.677 64.528H65.3536V63.7165H69.6467C69.8435 66.5324 68.0489 68.5714 65.3777 68.5714C64.2098 68.5714 63.0897 68.1052 62.2639 67.2754C61.4381 66.4456 60.9741 65.3201 60.9741 64.1465C60.9741 62.973 61.4381 61.8475 62.2639 61.0177C63.0897 60.1879 64.2098 59.7217 65.3777 59.7217C67.2655 59.7217 68.9117 60.9527 69.2844 62.6519L68.3629 62.8288C68.1733 62.1812 67.7799 61.6129 67.2417 61.209C66.7035 60.8051 66.0495 60.5874 65.3777 60.5886C63.3692 60.5886 61.9266 62.0659 61.9266 64.15C61.9266 66.2341 63.3726 67.7045 65.3777 67.7045C65.8039 67.7212 66.229 67.6516 66.6277 67.4996C67.0265 67.3477 67.3907 67.1166 67.6986 66.8201C68.0065 66.5237 68.2518 66.1679 68.4199 65.7741C68.588 65.3803 68.6755 64.9565 68.677 64.528Z" fill="#1A0D50"/>
<path d="M80.2175 66.1335C80.6195 65.5724 80.9305 64.9509 81.139 64.2921H82.0604C81.7832 65.1529 81.3657 65.9615 80.8249 66.6849C81.0665 66.9068 82.3503 68.072 82.5712 68.2766H81.2667L80.2313 67.3403C79.507 68.098 78.5157 68.5401 77.4704 68.5713C75.8933 68.5713 74.751 67.5865 74.751 66.2132C74.751 64.9267 75.5447 64.2921 76.5007 63.8482C75.9896 63.3349 75.687 62.6488 75.6517 61.9236C75.6517 60.7169 76.6284 59.843 77.926 59.8152C78.5046 59.8002 79.0681 60.0016 79.5074 60.3802C79.9467 60.7588 80.2305 61.2878 80.3038 61.8647L79.3927 62.0415C79.3682 61.6729 79.2052 61.3274 78.9367 61.0751C78.6682 60.8227 78.3143 60.6822 77.9467 60.6822C77.7719 60.6707 77.5967 60.6956 77.4319 60.7555C77.2672 60.8153 77.1166 60.9088 76.9895 61.0299C76.8625 61.1511 76.7617 61.2973 76.6937 61.4595C76.6256 61.6216 76.5916 61.7962 76.5939 61.9722C76.5939 62.5444 76.939 63.12 77.5291 63.661C77.8708 63.9869 79.8206 65.7798 80.2175 66.1335ZM77.1115 64.4551C76.2626 64.7845 75.7 65.2665 75.7 66.189C75.7 67.1114 76.4938 67.7009 77.5809 67.7009C77.9647 67.6942 78.3432 67.6096 78.6936 67.4523C79.0441 67.295 79.3594 67.0681 79.6205 66.7854C79.2478 66.449 77.4773 64.7949 77.1012 64.4551H77.1115Z" fill="#1A0D50"/>
<path d="M94.1083 65.5404L95.0504 65.7173C94.6432 67.3679 93.0212 68.5886 91.1679 68.5886C88.6935 68.5886 86.8989 66.7368 86.8989 64.1672C86.8989 61.5976 88.6935 59.7389 91.1679 59.7389C92.0574 59.7318 92.9235 60.025 93.6275 60.5714C94.3314 61.1178 94.8325 61.8858 95.0504 62.7524L94.0945 62.8668C93.9253 62.2172 93.546 61.6425 93.0162 61.2332C92.4864 60.8239 91.8362 60.6032 91.1679 60.6058C89.2422 60.6058 87.8652 62.0935 87.8652 64.1672C87.8652 66.2409 89.2457 67.7217 91.1679 67.7217C91.8275 67.7292 92.4716 67.5203 93.0022 67.1267C93.5329 66.733 93.9212 66.1761 94.1083 65.5404Z" fill="#1A0D50"/>
<path d="M96.4722 64.1534C96.4722 61.5665 98.3047 59.7251 100.893 59.7251C103.481 59.7251 105.328 61.563 105.328 64.1534C105.328 66.7439 103.485 68.5748 100.893 68.5748C98.3013 68.5748 96.4722 66.7404 96.4722 64.1534ZM97.4419 64.1534C97.4419 66.2168 98.8879 67.694 100.893 67.7079C102.898 67.7218 104.344 66.2168 104.344 64.1534C104.344 62.0901 102.908 60.592 100.893 60.592C98.8776 60.592 97.4419 62.0728 97.4419 64.1534Z" fill="#1A0D50"/>
<path d="M108.103 68.2769H107.133V60.0132H108.534L111.53 66.9487L114.553 60.0132H115.957V68.2769H114.991V61.2581L111.933 68.2769H111.153L108.109 61.2685L108.103 68.2769Z" fill="#1A0D50"/>
<path d="M119.111 67.4099H123.894V68.2769H118.166V60.0132H123.777V60.8836H119.111V63.5884H123.311V64.4103H119.111V67.4099Z" fill="#1A0D50"/>
<path d="M126.655 68.2769H125.689V60.0132H129.316C131.042 60.0132 132.291 61.0917 132.291 62.6175C132.277 63.1908 132.068 63.7422 131.699 64.1795C131.33 64.6168 130.822 64.9137 130.262 65.0206L132.36 68.2769H131.228L129.282 65.1559H126.655V68.2769ZM126.655 60.8836V64.2924H129.247C130.458 64.2924 131.318 63.5988 131.318 62.6175C131.318 61.539 130.455 60.8836 129.247 60.8836H126.655Z" fill="#1A0D50"/>
<path d="M140.663 65.5409L141.609 65.7178C141.202 67.3684 139.58 68.5891 137.727 68.5891C135.252 68.5891 133.458 66.7373 133.458 64.1677C133.458 61.5981 135.252 59.7394 137.727 59.7394C138.616 59.7329 139.482 60.0263 140.186 60.5726C140.889 61.1189 141.391 61.8866 141.609 62.7528L140.653 62.8673C140.483 62.2179 140.104 61.6436 139.574 61.2344C139.045 60.8252 138.395 60.6043 137.727 60.6063C135.801 60.6063 134.424 62.094 134.424 64.1677C134.424 66.2414 135.804 67.7221 137.727 67.7221C138.386 67.7301 139.03 67.5213 139.56 67.1275C140.09 66.7337 140.478 66.1766 140.663 65.5409Z" fill="#1A0D50"/>
<path d="M144.397 60.0132V68.2769H143.428V60.0132H144.397Z" fill="#1A0D50"/>
<path d="M146.879 68.2769H145.844L148.912 60.0132H150.313L153.381 68.2769H152.346L151.721 66.5811H147.511L146.879 68.2769ZM147.742 65.8286H151.504L149.637 60.8836L147.742 65.8286Z" fill="#1A0D50"/>
<path d="M154.823 68.2769V60.0132H155.79V67.4099H160V68.2769H154.823Z" fill="#1A0D50"/>
</g>
<defs>
<clipPath id="clip0">
<rect width="160" height="68.5714" fill="white"/>
</clipPath>
</defs>
</svg>
