<svg width="63" height="64" viewBox="0 0 63 64" fill="none" xmlns="http://www.w3.org/2000/svg">
<path d="M6.03846 41.0539H7.47396L12.1027 63.0411C12.1598 63.3123 12.3084 63.5556 12.5236 63.7301C12.7388 63.9047 13.0075 64 13.2846 64H24.1538C25.094 64.0002 25.9974 63.635 26.6732 62.9815C27.3491 62.328 27.7444 61.4374 27.7758 60.4978C27.8072 59.5582 27.472 58.6431 26.8413 57.946C26.2105 57.2489 25.3334 56.8243 24.3954 56.7619L22.4782 48.3H25.3615C25.6818 48.3 25.989 48.1728 26.2155 47.9463C26.442 47.7198 26.5692 47.4126 26.5692 47.0923V41.557C32.8905 43.9381 38.5944 47.712 43.2577 52.5988L47.1328 56.6675C47.2663 57.734 47.8011 58.7096 48.6284 59.3958C49.4557 60.082 50.5134 60.4272 51.5862 60.3613C52.659 60.2954 53.6664 59.8232 54.4035 59.0409C55.1405 58.2586 55.5519 57.2248 55.5538 56.15V37.2463L61.7908 36.2068C62.0728 36.1598 62.329 36.0143 62.5138 35.7961C62.6986 35.5779 62.8 35.3013 62.8 35.0154V25.3539C62.8 25.068 62.6986 24.7913 62.5138 24.5732C62.329 24.355 62.0728 24.2095 61.7908 24.1625L55.5538 23.123V4.21925C55.5519 3.14441 55.1405 2.11068 54.4035 1.32836C53.6664 0.546041 52.659 0.0738919 51.5862 0.00796459C50.5134 -0.0579627 49.4557 0.287285 48.6284 0.973472C47.8011 1.65966 47.2663 2.63524 47.1328 3.70176L43.2577 7.77047C38.2457 13.0231 32.0365 16.9842 25.1608 19.3154H6.03846C4.43751 19.3172 2.90265 19.954 1.77061 21.086C0.638569 22.2181 0.00179803 23.7529 0 25.3539V35.0154C0.00179803 36.6163 0.638569 38.1512 1.77061 39.2832C2.90265 40.4153 4.43751 41.0521 6.03846 41.0539ZM23.4292 59.1692H24.1538C24.4741 59.1692 24.7813 59.2965 25.0078 59.523C25.2343 59.7494 25.3615 60.0566 25.3615 60.3769C25.3615 60.6972 25.2343 61.0044 25.0078 61.2309C24.7813 61.4574 24.4741 61.5846 24.1538 61.5846H14.2645L9.94218 41.0539H18.3584L22.2517 58.2286C22.3123 58.4957 22.4618 58.7342 22.6758 58.9051C22.8897 59.076 23.1554 59.1692 23.4292 59.1692ZM24.1538 45.8846H21.9302L20.8351 41.0539H24.1538V45.8846ZM60.3846 26.3769V33.9923L55.5538 34.7976V25.5717L60.3846 26.3769ZM51.3269 2.40771C51.8072 2.40823 52.2677 2.59926 52.6073 2.93888C52.9469 3.27849 53.1379 3.73896 53.1385 4.21925V56.15C53.1385 56.6305 52.9476 57.0912 52.6079 57.431C52.2681 57.7707 51.8074 57.9615 51.3269 57.9615C50.8465 57.9615 50.3857 57.7707 50.046 57.431C49.7062 57.0912 49.5154 56.6305 49.5154 56.15V4.21925C49.5159 3.73896 49.7069 3.27849 50.0465 2.93888C50.3862 2.59926 50.8466 2.40823 51.3269 2.40771ZM45.0068 9.43648L47.1 7.23848V53.1308L45.0068 50.9328C39.8813 45.5611 33.5659 41.4684 26.5692 38.9843V21.3849C33.5659 18.9009 39.8814 14.8082 45.0068 9.43648ZM24.1538 38.6385H9.66154V21.7308H24.1538V38.6385ZM2.41538 25.3539C2.41646 24.3933 2.79853 23.4724 3.47775 22.7931C4.15698 22.1139 5.07789 21.7319 6.03846 21.7308H7.24615V38.6385H6.03846C5.07789 38.6374 4.15698 38.2553 3.47775 37.5761C2.79853 36.8969 2.41646 35.976 2.41538 35.0154V25.3539Z" fill="white"/>
</svg>
