<svg width="24" height="24" viewBox="0 0 24 24" fill="none" xmlns="http://www.w3.org/2000/svg">
<circle cx="12" cy="12" r="11.5" fill="white" stroke="white"/>
<path d="M9.0158 7.456V8.98H13.5158L10.7318 10.756L11.1638 11.884C11.3438 11.812 11.6318 11.764 11.8358 11.764C12.6878 11.764 13.3118 12.388 13.3118 13.24C13.3118 14.08 12.6998 14.68 11.8478 14.68C10.9958 14.68 10.3718 13.936 10.2518 12.916L8.4878 13.192C8.6198 14.992 9.9638 16.3 11.8838 16.3C13.8158 16.3 15.2078 15.16 15.2198 13.552C15.2198 12.208 14.2838 11.248 12.6038 11.092L14.8838 9.4V7.456H9.0158Z" fill="#2A28B7"/>
</svg>
