<svg width="16" height="16" viewBox="0 0 16 16" fill="none" xmlns="http://www.w3.org/2000/svg">
<path d="M11.61 9.58803C11.412 9.48869 10.438 9.01003 10.2567 8.94336C10.0747 8.87736 9.94267 8.84469 9.81 9.04336C9.67867 9.24136 9.29867 9.68736 9.18333 9.81936C9.068 9.95203 8.952 9.96803 8.754 9.86936C8.556 9.76936 7.91733 9.56069 7.16067 8.88603C6.572 8.36069 6.174 7.71203 6.05867 7.51336C5.94333 7.31536 6.04667 7.20803 6.14533 7.10936C6.23467 7.02069 6.344 6.87803 6.44267 6.76269C6.542 6.64669 6.57467 6.56403 6.64133 6.43136C6.70733 6.29936 6.67467 6.18403 6.62467 6.08469C6.57467 5.98536 6.17867 5.01003 6.014 4.61336C5.85267 4.22736 5.68933 4.28003 5.568 4.27336C5.45267 4.26803 5.32067 4.26669 5.188 4.26669C5.056 4.26669 4.84133 4.31603 4.66 4.51469C4.47867 4.71269 3.96667 5.19203 3.96667 6.16736C3.96667 7.14203 4.67667 8.08403 4.77533 8.21669C4.87467 8.34869 6.17267 10.35 8.16 11.208C8.63267 11.412 9.00133 11.534 9.28933 11.6247C9.764 11.776 10.196 11.7547 10.5367 11.7034C10.9173 11.6467 11.7087 11.224 11.874 10.7614C12.0393 10.2987 12.0393 9.90203 11.9893 9.81936C11.94 9.73669 11.808 9.68736 11.6093 9.58803H11.61ZM7.99533 14.5234H7.99267C6.81251 14.5235 5.65405 14.2062 4.63867 13.6047L4.398 13.462L1.904 14.1167L2.56933 11.6847L2.41267 11.4354C1.75296 10.3849 1.40396 9.16915 1.406 7.92869C1.40667 4.29536 4.36333 1.33936 7.998 1.33936C9.758 1.33936 11.4127 2.02603 12.6567 3.27136C13.2705 3.88244 13.7569 4.60918 14.088 5.40952C14.4191 6.20987 14.5881 7.06792 14.5853 7.93403C14.5833 11.5674 11.6273 14.5234 7.99533 14.5234ZM13.604 2.32536C12.8695 1.58598 11.9955 0.999719 11.0327 0.600561C10.07 0.201403 9.03756 -0.0027175 7.99533 2.73184e-05C3.62533 2.73184e-05 0.0686667 3.55669 0.0666667 7.92803C0.0666667 9.32536 0.431333 10.6894 1.12533 11.8914L0 16L4.20333 14.8974C5.36573 15.5306 6.66829 15.8625 7.992 15.8627H7.99533C12.3647 15.8627 15.922 12.306 15.924 7.93403C15.9272 6.89221 15.7238 5.86009 15.3256 4.89738C14.9274 3.93467 14.3422 3.06047 13.604 2.32536Z" fill="white"/>
</svg>
