<svg width="64" height="64" viewBox="0 0 64 64" fill="none" xmlns="http://www.w3.org/2000/svg">
<circle cx="32" cy="32" r="31" fill="#2A28B7" fill-opacity="0.1" stroke="#2A28B7" stroke-width="2"/>
<path d="M46.0824 38.8014C46.1633 39.1032 46.1528 39.4221 46.0524 39.718C45.952 40.0138 45.7662 40.2732 45.5183 40.4634C45.2705 40.6536 44.9718 40.7661 44.66 40.7865C44.3483 40.807 44.0375 40.7345 43.7669 40.5783L33.6478 34.736V46.4203C33.6478 46.8392 33.4814 47.2411 33.1851 47.5373C32.8889 47.8336 32.4871 48 32.0681 48C31.6491 48 31.2473 47.8336 30.9511 47.5373C30.6548 47.2411 30.4884 46.8392 30.4884 46.4203V34.736L20.3693 40.5783C20.0066 40.785 19.5769 40.8398 19.1739 40.7307C18.771 40.6215 18.4276 40.3573 18.2189 39.9958C18.0102 39.6343 17.953 39.2049 18.0599 38.8013C18.1669 38.3978 18.4292 38.053 18.7895 37.8423L28.9087 32L18.7895 26.1577C18.4268 25.9482 18.1621 25.6031 18.0537 25.1984C17.9454 24.7937 18.0023 24.3625 18.2118 23.9998C18.4214 23.637 18.7664 23.3723 19.1711 23.264C19.5758 23.1556 20.007 23.2125 20.3697 23.422L30.4884 29.264V17.5797C30.4884 17.1608 30.6548 16.759 30.9511 16.4627C31.2473 16.1664 31.6491 16 32.0681 16C32.4871 16 32.8889 16.1664 33.1851 16.4627C33.4814 16.759 33.6478 17.1608 33.6478 17.5797V29.264L43.7669 23.4217C44.1296 23.215 44.5593 23.1602 44.9623 23.2693C45.3652 23.3785 45.7085 23.6427 45.9173 24.0042C46.126 24.3657 46.1832 24.7951 46.0762 25.1987C45.9693 25.6022 45.707 25.947 45.3467 26.1577L35.2276 32L45.3467 37.8423C45.5267 37.9455 45.6844 38.0834 45.8107 38.2481C45.937 38.4127 46.0293 38.6008 46.0824 38.8014Z" fill="#2A28B7"/>
</svg>
